<svg width="300" height="50" viewBox="0 0 300 50" fill="none" xmlns="http://www.w3.org/2000/svg">
<path d="M289.142 15L299.124 27.832C299.396 28.1836 299.606 28.6035 299.756 29.0918C299.919 29.5801 300 30.0977 300 30.6445C300 31.2109 299.919 31.748 299.756 32.2559C299.593 32.7441 299.369 33.1641 299.083 33.5156L289.224 45.9375H281.605L293.746 30.6445L281.605 15H289.142Z" fill="#A8A8A8"/>
<path d="M18.3948 15L6.25382 30.6445L18.3948 45.9375H10.7558L0.916684 33.5156C0.305561 32.793 0 31.8359 0 30.6445C0 30.0977 0.0746927 29.5801 0.224078 29.0918C0.387044 28.6035 0.604332 28.1836 0.875942 27.832L10.8372 15H18.3948Z" fill="#A8A8A8"/>
<path d="M277.977 39.1211C277.977 40.1758 277.682 41.582 277.295 42.6074C277.037 43.8184 276.616 44.9512 276.032 46.0059C275.461 47.041 274.708 47.9102 273.771 48.6133C272.847 49.3164 271.72 49.668 270.389 49.668H260.835C260.102 49.668 259.307 49.4824 258.452 49.1113C257.61 48.7402 256.822 48.1445 256.089 47.3242C255.369 46.4844 254.765 45.4004 254.276 44.0723C253.787 42.7246 253.542 41.0938 253.542 39.1797C253.542 38.125 253.671 36.9824 253.929 35.752C254.188 34.5215 254.602 33.3887 255.172 32.3535C255.756 31.2988 256.51 30.4199 257.433 29.7168C258.37 29.0137 259.504 28.6621 260.835 28.6621H270.389V35.9277H260.835C260.115 35.9277 259.559 36.25 259.165 36.8945C258.771 37.5195 258.574 38.3008 258.574 39.2383C258.574 40.2344 258.798 41.0156 259.246 41.582C259.708 42.1289 260.251 42.4023 260.876 42.4023H270.389C271.109 42.4023 271.666 42.0898 272.059 41.4648C272.453 40.8398 272.65 40.0586 272.65 39.1211V28.4863C272.65 27.4902 272.433 26.6992 271.998 26.1133C271.577 25.5273 271.041 25.1654 270.389 25.1654L258.757 24.9414V17.4414H270.389C271.122 17.4414 270.925 17.4414 272.664 17.4414C273.519 17.8125 275.224 19.1016 275.943 19.9414C276.677 20.7617 277.193 21.0938 277.682 22.4414C278.171 23.7695 278.424 26.5723 278.424 28.4863V33.7639L277.977 39.1211Z" fill="#39D353"/>
<path d="M251.761 38.6479C251.761 39.9565 251.646 41.1381 251.415 42.1928C251.184 43.228 250.879 44.1459 250.498 44.9467C250.118 45.728 249.677 46.4018 249.174 46.9682C248.672 47.5151 248.142 47.9643 247.585 48.3159C247.042 48.6674 246.485 48.9311 245.915 49.1069C245.358 49.2631 244.123 49.7492 243.621 49.7492L229.984 49.6576V42.0568L244.285 41.7241C245.005 41.7241 245.548 41.4604 245.915 40.933C246.282 40.4057 246.465 39.644 246.465 38.6479C246.397 36.6166 245.684 35.601 244.326 35.601H236.117C234.949 35.601 233.957 35.308 233.143 34.7221C232.328 34.1362 231.662 33.4037 231.146 32.5248C230.644 31.6459 230.277 30.6987 230.046 29.683C229.829 28.6674 229.72 27.7202 229.72 26.8412C229.72 25.142 229.931 23.7162 230.352 22.5639C230.773 21.392 231.302 20.4448 231.941 19.7221C232.579 18.9995 233.272 18.4819 234.018 18.1694C234.765 17.8373 235.465 17.6713 236.117 17.6713H259.329L259.271 25.1713L236.157 25.2885C235.886 25.2885 235.669 25.3373 235.506 25.435C235.356 25.5131 235.241 25.6303 235.159 25.7866C235.091 25.9233 235.051 26.0795 235.037 26.2553C235.023 26.4116 235.017 26.5678 235.017 26.7241C235.03 27.0366 235.071 27.2807 235.139 27.4565C235.207 27.6323 235.288 27.7592 235.383 27.8373C235.492 27.9155 235.607 27.9643 235.73 27.9838C235.865 27.9838 235.994 27.9838 236.117 27.9838H244.326C245.684 27.9838 246.838 28.3354 247.789 29.0385C248.74 29.7416 249.507 30.6303 250.091 31.7045C250.675 32.7592 251.096 33.9116 251.354 35.1616C251.626 36.4116 251.761 37.5737 251.761 38.6479Z" fill="#39D353"/>
<path d="M220.132 38.8889H212.712V11.1111H220.132V38.8889Z" fill="#39D353"/>
<path d="M230.006 49.6513L191.198 50C190.783 50 190.398 49.8838 190.042 49.6513C189.687 49.4189 189.376 49.1051 189.109 48.7099C188.857 48.2915 188.657 47.8033 188.509 47.2455C188.361 46.6876 188.287 46.0832 188.287 45.4324V0H194.065V42.3077L230.006 42.058V49.6513Z" fill="#39D353"/>
<path d="M187.893 37.0117C187.893 38.0664 187.764 39.209 187.506 40.4395C187.248 41.6504 186.827 42.7832 186.243 43.8379C185.673 44.873 184.919 45.7422 183.982 46.4453C183.058 47.1484 181.931 47.5 180.6 47.5H171.046C170.313 47.5 169.519 47.3145 168.663 46.9434C167.821 46.5723 167.033 45.9766 166.3 45.1562C165.58 44.3164 164.63 41.9127 164.141 40.5845C163.652 39.2369 163.754 38.9258 163.754 37.0117C163.754 35.957 163.883 34.8145 164.141 33.584C164.399 32.3535 164.813 31.2207 165.383 30.1855C165.967 29.1309 166.721 28.252 167.644 27.5488C168.582 26.8457 169.715 26.4941 171.046 26.4941H180.6V33.7598H171.046C170.327 33.7598 169.77 34.082 169.376 34.7266C168.982 35.3516 168.785 36.1328 168.785 37.0703C168.785 38.0664 169.009 38.8477 169.457 39.4141C169.919 39.9609 170.462 40.2344 171.087 40.2344H180.6C181.32 40.2344 181.877 39.9219 182.271 39.2969C182.664 38.6719 182.861 37.8906 182.861 36.9531V26.3184C182.861 25.3223 182.644 24.5312 182.21 23.9453C181.789 23.3594 181.252 23.0664 180.6 23.0664H168.969V15.8301H180.6C181.334 15.8301 182.121 16.0156 182.963 16.3867C183.819 16.7578 184.606 17.3633 185.326 18.2031C186.06 19.0234 186.671 20.1074 187.16 21.4551C187.649 22.7832 187.893 24.4043 187.893 26.3184V37.0117Z" fill="#39D353"/>
<path d="M161.534 27.4352C161.534 28.4343 161.401 29.5167 161.135 30.6822C160.868 31.8293 160.434 32.9024 159.831 33.9015C159.243 34.8821 158.465 35.7054 157.498 36.3714C156.545 37.0375 155.382 37.3705 154.009 37.3705H144.15V30.5157H154.009C154.752 30.5157 155.326 30.2197 155.732 29.6277C156.139 29.0171 156.342 28.2678 156.342 27.3797C156.342 26.4362 156.111 25.6961 155.648 25.1596C155.2 24.623 154.653 24.3548 154.009 24.3548H144.15C143.408 24.3548 142.833 24.66 142.427 25.2706C142.02 25.8626 141.817 26.6027 141.817 27.4907V37.5648C141.817 38.5268 142.041 39.2761 142.49 39.8127C142.952 40.3492 143.52 40.6175 144.192 40.6175L164.334 40.6175L171.391 47.5H144.15C143.394 47.5 142.574 47.3242 141.691 46.9727C140.822 46.6212 140.009 46.0569 139.253 45.2798C138.51 44.4843 137.886 43.4574 137.382 42.1994C136.877 40.9228 136.625 39.3779 136.625 37.5648V27.4352C136.625 26.4362 136.758 25.3631 137.025 24.216C137.291 23.0504 137.718 21.9773 138.307 20.9968C138.909 19.9977 139.687 19.1651 140.64 18.4991C141.607 17.833 142.777 17.5 144.15 17.5H154.009C154.766 17.5 155.578 17.6758 156.447 18.0273C157.33 18.3788 158.143 18.9524 158.885 19.7479C159.642 20.525 160.273 21.5518 160.777 22.8284C161.282 24.0865 161.534 25.6221 161.534 27.4352Z" fill="#39D353"/>
<path d="M133.585 19.6094C133.585 21.3477 133.435 22.9004 133.136 24.2676C132.838 25.6348 132.43 26.8457 131.914 27.9004C131.412 28.9355 130.828 29.8242 130.162 30.5664C129.497 31.3086 128.797 31.9238 128.064 32.4121C127.344 32.8809 126.611 33.2227 125.864 33.4375C125.131 33.6523 124.438 33.7598 123.786 33.7598L134.848 47.5H126.659L115.618 33.7598H111.808V26.1426H123.786C124.452 26.0645 125.056 25.8691 125.599 25.5566C126.156 25.2246 126.631 24.7852 127.025 24.2383C127.433 23.6914 127.745 23.0371 127.962 22.2754C128.18 21.4941 128.288 20.6055 128.288 19.6094V14.8047C128.288 14.375 128.247 14.0527 128.166 13.8379C128.098 13.6035 128.003 13.4375 127.881 13.3398C127.772 13.2227 127.65 13.1543 127.514 13.1348C127.392 13.1152 127.276 13.1055 127.168 13.1055H109.69V47.5H104.393V9.32617C104.393 8.79883 104.461 8.30078 104.597 7.83203C104.733 7.36328 104.916 6.95312 105.147 6.60156C105.391 6.25 105.677 5.97656 106.003 5.78125C106.329 5.58594 106.682 5.48828 107.062 5.48828H127.168C128.349 5.48828 129.347 5.80078 130.162 6.42578C130.977 7.03125 131.636 7.80273 132.138 8.74023C132.654 9.6582 133.021 10.6543 133.238 11.7285C133.469 12.8027 133.585 13.8086 133.585 14.7461V19.6094Z" fill="#39D353"/>
<path d="M100.299 23.4473H88.3819C87.6621 23.4473 87.1189 23.7109 86.7522 24.2383C86.3855 24.7461 86.2022 25.498 86.2022 26.4941V47.5H80.9058V26.4941C80.9058 25.1855 81.0212 24.0137 81.2521 22.9785C81.483 21.9434 81.7885 21.0352 82.1688 20.2539C82.5626 19.4531 83.0108 18.7793 83.5133 18.2324C84.0157 17.666 84.5386 17.207 85.0818 16.8555C85.6386 16.5039 86.1954 16.25 86.7522 16.0938C87.3226 15.918 87.8522 15.8301 88.3411 15.8301H100.299V23.4473Z" fill="#39D353"/>
<path d="M76.0576 43.6621C76.0576 44.209 75.9897 44.7168 75.8539 45.1855C75.7181 45.6543 75.5279 46.0645 75.2835 46.416C75.0526 46.748 74.7742 47.0117 74.4483 47.207C74.1359 47.4023 73.7964 47.5 73.4298 47.5H61.4518C60.7999 47.5 60.1005 47.3926 59.3536 47.1777C58.6202 46.9629 57.8937 46.6211 57.1739 46.1523C56.4541 45.6641 55.7547 45.0586 55.0757 44.3359C54.4103 43.5938 53.8263 42.7051 53.3238 41.6699C52.8213 40.6152 52.4139 39.4043 52.1016 38.0371C51.8028 36.6699 51.6534 35.127 51.6534 33.4082V15.8301H56.9498V33.4082C56.9498 34.4043 57.0653 35.3027 57.2961 36.1035C57.5406 36.8848 57.8665 37.5586 58.2739 38.125C58.6813 38.6914 59.1567 39.1309 59.6999 39.4434C60.2567 39.7363 60.8542 39.8828 61.4925 39.8828H70.7612V15.8301H76.0576V43.6621Z" fill="#39D353"/>
<path d="M49.6435 34.5215C49.6435 36.0254 49.5077 37.3828 49.2361 38.5938C48.9781 39.7852 48.6318 40.8398 48.1972 41.7578C47.7626 42.6758 47.2533 43.457 46.6694 44.1016C46.0854 44.7461 45.4811 45.2734 44.8564 45.6836C44.2317 46.0938 43.5934 46.3965 42.9415 46.5918C42.3033 46.7871 41.6989 46.8848 41.1285 46.8848H20.6967V39.2676H41.1285C42.1471 39.2676 42.9347 38.8379 43.4915 37.9785C44.0619 37.1191 44.3471 35.9668 44.3471 34.5215C44.3471 33.8184 44.2724 33.1738 44.123 32.5879C43.9737 32.002 43.7564 31.4941 43.4712 31.0645C43.1996 30.6348 42.8601 30.3027 42.4526 30.0684C42.0588 29.834 41.6174 29.7168 41.1285 29.7168H28.9468C28.0913 29.7168 27.1678 29.502 26.1764 29.0723C25.185 28.623 24.2616 27.9102 23.406 26.9336C22.564 25.957 21.8578 24.6777 21.2874 23.0957C20.7306 21.5137 20.4522 19.5801 20.4522 17.2949C20.4522 15.0098 20.7306 13.0859 21.2874 11.5234C21.8578 9.94141 22.564 8.66211 23.406 7.68555C24.2616 6.68945 25.185 5.97656 26.1764 5.54688C27.1678 5.09766 28.0913 4.87305 28.9468 4.87305H46.6898V12.4902H28.9468C27.9419 12.4902 27.1542 12.9297 26.5838 13.8086C26.027 14.6875 25.7486 15.8496 25.7486 17.2949C25.7486 18.7598 26.027 19.9219 26.5838 20.7812C27.1542 21.6211 27.9419 22.041 28.9468 22.041H41.1285H41.1693C41.7397 22.0605 42.344 22.1777 42.9823 22.3926C43.6206 22.5879 44.2521 22.9004 44.8768 23.3301C45.515 23.7598 46.1194 24.3066 46.6898 24.9707C47.2601 25.6152 47.7626 26.3965 48.1972 27.3145C48.6453 28.2324 48.9984 29.2871 49.2565 30.4785C49.5145 31.6699 49.6435 33.0176 49.6435 34.5215Z" fill="#39D353"/>
<path opacity="0.96" d="M219.665 6.05357C219.665 6.2381 219.642 6.4375 219.597 6.65179C219.551 6.86607 219.477 7.06548 219.373 7.25C219.27 7.43452 219.135 7.58929 218.97 7.71429C218.805 7.83929 218.604 7.90179 218.368 7.90179H215.459C215.327 7.90179 215.186 7.86905 215.038 7.80357C214.889 7.7381 214.75 7.63095 214.622 7.48214C214.494 7.33333 214.386 7.14286 214.299 6.91071C214.217 6.67857 214.175 6.39286 214.175 6.05357C214.175 5.86905 214.198 5.66667 214.244 5.44643C214.289 5.22619 214.361 5.02381 214.461 4.83929C214.564 4.65476 214.696 4.5 214.858 4.375C215.023 4.25 215.224 4.1875 215.459 4.1875H216.756V5.8125H215.459C215.447 5.8125 215.432 5.81548 215.416 5.82143C215.399 5.82143 215.383 5.83036 215.366 5.84821C215.35 5.86012 215.335 5.88393 215.323 5.91964C215.31 5.9494 215.304 5.99405 215.304 6.05357C215.304 6.13691 215.321 6.19345 215.354 6.22321C215.387 6.25298 215.426 6.26786 215.472 6.26786H216.967C217 6.26786 217.027 6.25298 217.047 6.22321C217.072 6.1875 217.084 6.125 217.084 6.03571V3.94643C217.084 3.89286 217.076 3.84226 217.06 3.79464C217.047 3.74107 216.996 3.71429 216.905 3.71429H214.82V2.08036H216.917C217.045 2.08036 217.186 2.1131 217.339 2.17857C217.492 2.24405 217.632 2.35119 217.761 2.5C217.889 2.64881 217.996 2.84226 218.083 3.08036C218.17 3.31845 218.213 3.60714 218.213 3.94643V6.05357C218.213 6.08929 218.211 6.125 218.207 6.16071C218.203 6.19643 218.201 6.23214 218.201 6.26786H218.368C218.414 6.26786 218.451 6.25893 218.48 6.24107C218.513 6.22321 218.53 6.15476 218.53 6.03571V2.90179C218.53 2.70536 218.507 2.52976 218.461 2.375C218.416 2.21429 218.354 2.08036 218.275 1.97321C218.197 1.86012 218.104 1.77381 217.996 1.71429C217.889 1.65476 217.771 1.625 217.643 1.625H214.734C214.597 1.625 214.473 1.65774 214.361 1.72321C214.254 1.78869 214.161 1.88095 214.082 2C214.008 2.1131 213.95 2.24702 213.909 2.40179C213.867 2.55655 213.847 2.72321 213.847 2.90179V7.08929C213.847 7.27976 213.869 7.45536 213.915 7.61607C213.96 7.77083 214.022 7.90476 214.101 8.01786C214.184 8.13095 214.279 8.22024 214.386 8.28571C214.494 8.34524 214.61 8.375 214.734 8.375H215.459V10H214.734C214.531 10 214.312 9.9494 214.076 9.84821C213.84 9.74702 213.621 9.58036 213.419 9.34821C213.216 9.11607 213.046 8.81548 212.91 8.44643C212.778 8.07738 212.712 7.625 212.712 7.08929V2.90179C212.712 2.61012 212.747 2.29464 212.817 1.95536C212.887 1.61607 213.003 1.30357 213.164 1.01786C213.326 0.726191 213.534 0.485119 213.791 0.294643C214.047 0.0982143 214.361 0 214.734 0H217.643C217.845 0 218.064 0.0505952 218.3 0.151786C218.536 0.252976 218.755 0.419643 218.958 0.651786C219.16 0.877976 219.328 1.1756 219.46 1.54464C219.597 1.91369 219.665 2.36607 219.665 2.90179V6.05357Z" fill="#A8A8A8"/>
</svg>
