<svg width="300" height="50" viewBox="0 0 300 50" fill="none" xmlns="http://www.w3.org/2000/svg">
<path d="M289.157 16.9088L299.125 28.963C299.396 29.2933 299.607 29.6877 299.756 30.1464C299.919 30.6051 300 31.0913 300 31.605C300 32.1371 299.919 32.6416 299.756 33.1187C299.593 33.5773 299.369 33.9718 299.085 34.3021L289.238 45.9709H281.629L293.754 31.605L281.629 16.9088H289.157Z" fill="#A8A8A8"/>
<path d="M18.3706 14.0907L6.2456 28.7869L18.3706 43.1528H10.7416L0.915479 31.4839C0.30516 30.8051 0 29.9061 0 28.7869C0 28.2731 0.0745946 27.7869 0.223784 27.3283C0.386536 26.8696 0.603538 26.4751 0.874791 26.1449L10.823 14.0907H18.3706Z" fill="#A8A8A8"/>
<path d="M282.064 40.0925C282.064 41.0832 281.769 42.4042 281.382 43.3675C281.124 44.505 280.704 45.5691 280.121 46.5599C279.551 47.5323 278.798 48.3487 277.863 49.0092C276.94 49.6697 275.815 50 274.485 50H264.944C264.212 50 263.418 49.8257 262.564 49.4771C261.723 49.1285 260.936 48.5689 260.204 47.7983C259.485 47.0094 258.882 45.9911 258.393 44.7435C257.905 43.4775 257.661 41.9455 257.661 40.1475C257.661 39.1568 257.79 38.0834 258.047 36.9276C258.305 35.7717 258.719 34.7075 259.288 33.7351C259.872 32.7444 260.624 31.9188 261.547 31.2583C262.482 30.5978 263.615 30.2675 264.944 30.2675H274.485V37.0927H264.944C264.225 37.0927 263.669 37.3954 263.276 38.0009C262.883 38.588 262.686 39.3219 262.686 40.2026C262.686 41.1383 262.91 41.8722 263.357 42.4042C263.818 42.9179 264.361 43.1748 264.985 43.1748H274.485C275.204 43.1748 275.76 42.8813 276.154 42.2941C276.547 41.707 276.744 40.9731 276.744 40.0925V30.1024C276.744 29.1667 276.527 28.4236 276.093 27.8732C275.672 27.3228 275.136 26.9828 274.485 26.9828L262.869 26.7723V19.727H274.485C275.218 19.727 275.021 19.727 276.757 19.727C277.612 20.0756 279.314 21.2865 280.033 22.0754C280.765 22.846 281.28 23.1579 281.769 24.4239C282.257 25.6715 282.51 28.3043 282.51 30.1024V35.06L282.064 40.0925Z" fill="#39D353"/>
<path d="M219.842 39.3496H212.432V13.2557H219.842V39.3496Z" fill="#39D353"/>
<path d="M229.704 49.4596L190.947 49.7872C190.532 49.7872 190.148 49.678 189.793 49.4596C189.437 49.2413 189.127 48.9465 188.86 48.5753C188.609 48.1822 188.409 47.7237 188.261 47.1996C188.113 46.6756 188.039 46.1078 188.039 45.4964V2.81815H193.81V42.5612L229.704 42.3266V49.4596Z" fill="#39D353"/>
<path d="M187.646 37.5862C187.646 38.577 187.517 39.6503 187.26 40.8062C187.002 41.9437 186.581 43.0078 185.998 43.9986C185.429 44.971 184.676 45.7875 183.74 46.448C182.818 47.1085 181.692 47.4387 180.363 47.4387H170.822C170.089 47.4387 169.296 47.2644 168.441 46.9158C167.6 46.5672 166.814 46.0076 166.081 45.237C165.363 44.4481 164.413 42.1901 163.925 40.9425C163.437 39.6765 163.538 39.3843 163.538 37.5862C163.538 36.5955 163.667 35.5222 163.925 34.3663C164.183 33.2104 164.596 32.1463 165.166 31.1738C165.749 30.1831 166.502 29.3575 167.424 28.697C168.36 28.0365 169.492 27.7062 170.822 27.7062H180.363V34.5314H170.822C170.103 34.5314 169.547 34.8341 169.153 35.4396C168.76 36.0267 168.563 36.7606 168.563 37.6413C168.563 38.577 168.787 39.3109 169.235 39.8429C169.696 40.3567 170.238 40.6135 170.862 40.6135H180.363C181.082 40.6135 181.638 40.32 182.031 39.7329C182.424 39.1457 182.621 38.4118 182.621 37.5312V27.5411C182.621 26.6054 182.404 25.8623 181.97 25.3119C181.55 24.7615 181.014 24.4863 180.363 24.4863H168.747V17.6886H180.363C181.095 17.6886 181.882 17.8629 182.723 18.2115C183.577 18.5601 184.364 19.1289 185.083 19.9178C185.815 20.6884 186.425 21.7067 186.914 22.9726C187.402 24.2202 187.646 25.7431 187.646 27.5411V37.5862Z" fill="#39D353"/>
<path d="M161.322 28.5903C161.322 29.5288 161.189 30.5455 160.923 31.6404C160.657 32.718 160.223 33.726 159.621 34.6645C159.034 35.5857 158.257 36.3591 157.291 36.9847C156.339 37.6104 155.178 37.9232 153.806 37.9232H143.961V31.484H153.806C154.548 31.484 155.122 31.2059 155.528 30.6498C155.934 30.0762 156.137 29.3724 156.137 28.5381C156.137 27.6518 155.906 26.9566 155.444 26.4525C154.996 25.9485 154.45 25.6965 153.806 25.6965H143.961C143.219 25.6965 142.645 25.9833 142.24 26.5568C141.834 27.113 141.631 27.8082 141.631 28.6424V38.1057C141.631 39.0095 141.855 39.7134 142.303 40.2174C142.764 40.7214 143.331 40.9734 144.003 40.9734L164.118 40.9734L171.166 47.4387H143.961C143.205 47.4387 142.387 47.2736 141.505 46.9434C140.637 46.6132 139.825 46.0831 139.07 45.3531C138.328 44.6058 137.705 43.6412 137.201 42.4594C136.698 41.2602 136.446 39.809 136.446 38.1057V28.5903C136.446 27.6518 136.579 26.6437 136.845 25.5662C137.11 24.4712 137.537 23.4632 138.125 22.5421C138.727 21.6036 139.504 20.8215 140.455 20.1958C141.421 19.5701 142.589 19.2573 143.961 19.2573H153.806C154.562 19.2573 155.374 19.4224 156.242 19.7526C157.123 20.0828 157.935 20.6216 158.677 21.3689C159.432 22.0989 160.062 23.0635 160.566 24.2627C161.07 25.4445 161.322 26.887 161.322 28.5903Z" fill="#39D353"/>
<path d="M133.409 21.2388C133.409 22.8717 133.26 24.3303 132.961 25.6146C132.663 26.8989 132.256 28.0365 131.741 29.0272C131.239 29.9996 130.656 30.8344 129.991 31.5316C129.327 32.2288 128.628 32.8068 127.896 33.2654C127.177 33.7058 126.445 34.0269 125.699 34.2287C124.966 34.4305 124.275 34.5314 123.624 34.5314L134.67 47.4387H126.492L115.466 34.5314H111.661V27.376H123.624C124.288 27.3026 124.892 27.1191 125.434 26.8256C125.99 26.5136 126.465 26.1008 126.858 25.5871C127.265 25.0734 127.577 24.4588 127.794 23.7432C128.011 23.0093 128.12 22.1745 128.12 21.2388V16.7254C128.12 16.3217 128.079 16.019 127.998 15.8172C127.93 15.597 127.835 15.4411 127.713 15.3493C127.604 15.2392 127.482 15.175 127.347 15.1567C127.224 15.1383 127.109 15.1292 127.001 15.1292H109.546V47.4387H104.256V11.579C104.256 11.0836 104.324 10.6157 104.46 10.1754C104.595 9.73506 104.778 9.34977 105.009 9.01952C105.253 8.68927 105.538 8.43241 105.863 8.24893C106.189 8.06546 106.541 7.97372 106.921 7.97372H127.001C128.181 7.97372 129.177 8.26728 129.991 8.85439C130.805 9.42316 131.463 10.1479 131.965 11.0285C132.48 11.8909 132.846 12.8266 133.063 13.8357C133.294 14.8448 133.409 15.7897 133.409 16.6703V21.2388Z" fill="#39D353"/>
<path d="M100.167 24.844H88.2657C87.5469 24.844 87.0044 25.0917 86.6382 25.5871C86.272 26.0641 86.0889 26.7705 86.0889 27.7062V47.4387H80.7995V27.7062C80.7995 26.4769 80.9148 25.3761 81.1453 24.4037C81.3759 23.4313 81.6811 22.5781 82.0608 21.8443C82.4541 21.092 82.9017 20.459 83.4035 19.9453C83.9053 19.4132 84.4275 18.9821 84.97 18.6518C85.5261 18.3216 86.0821 18.0831 86.6382 17.9363C87.2078 17.7712 87.7368 17.6886 88.225 17.6886H100.167V24.844Z" fill="#39D353"/>
<path d="M75.9576 43.8335C75.9576 44.3472 75.8898 44.8242 75.7542 45.2646C75.6186 45.7049 75.4287 46.0902 75.1846 46.4204C74.954 46.7323 74.676 46.98 74.3505 47.1635C74.0385 47.347 73.6994 47.4387 73.3333 47.4387H61.371C60.72 47.4387 60.0215 47.3378 59.2756 47.136C58.5432 46.9342 57.8176 46.6131 57.0988 46.1727C56.3799 45.7141 55.6815 45.1453 55.0033 44.4665C54.3388 43.7693 53.7556 42.9345 53.2538 41.962C52.7519 40.9713 52.3451 39.8338 52.0331 38.5495C51.7347 37.2651 51.5855 35.8157 51.5855 34.2011V17.6886H56.875V34.2011C56.875 35.1369 56.9903 35.9808 57.2208 36.7331C57.465 37.467 57.7905 38.0999 58.1973 38.632C58.6042 39.1641 59.0789 39.5769 59.6214 39.8705C60.1775 40.1457 60.7742 40.2833 61.4117 40.2833H70.6682V17.6886H75.9576V43.8335Z" fill="#39D353"/>
<path d="M49.5783 35.2469C49.5783 36.6597 49.4426 37.9348 49.1714 39.0724C48.9137 40.1915 48.5679 41.1823 48.1339 42.0446C47.6998 42.9069 47.1912 43.6408 46.6081 44.2463C46.0249 44.8517 45.4213 45.3471 44.7974 45.7324C44.1736 46.1177 43.5361 46.4021 42.8851 46.5856C42.2477 46.769 41.6441 46.8608 41.0745 46.8608H20.6695V39.7053H41.0745C42.0917 39.7053 42.8783 39.3017 43.4344 38.4944C44.004 37.6871 44.2888 36.6046 44.2888 35.2469C44.2888 34.5864 44.2142 33.981 44.0651 33.4306C43.9159 32.8801 43.6989 32.4031 43.414 31.9995C43.1428 31.5958 42.8037 31.2839 42.3968 31.0638C42.0035 30.8436 41.5627 30.7335 41.0745 30.7335H28.9088C28.0543 30.7335 27.1321 30.5317 26.142 30.1281C25.1519 29.7061 24.2297 29.0364 23.3752 28.119C22.5343 27.2017 21.8291 25.9999 21.2595 24.5138C20.7034 23.0277 20.4254 21.2113 20.4254 19.0647C20.4254 16.918 20.7034 15.1108 21.2595 13.643C21.8291 12.1569 22.5343 10.9552 23.3752 10.0378C24.2297 9.10208 25.1519 8.4324 26.142 8.02876C27.1321 7.60678 28.0543 7.39578 28.9088 7.39578H46.6284V14.5512H28.9088C27.9052 14.5512 27.1185 14.964 26.5489 15.7897C25.9928 16.6153 25.7148 17.707 25.7148 19.0647C25.7148 20.4407 25.9928 21.5324 26.5489 22.3396C27.1185 23.1286 27.9052 23.523 28.9088 23.523H41.0745H41.1152C41.6848 23.5414 42.2883 23.6515 42.9258 23.8533C43.5632 24.0368 44.1939 24.3303 44.8178 24.734C45.4552 25.1376 46.0588 25.6513 46.6284 26.2751C47.198 26.8806 47.6998 27.6145 48.1339 28.4768C48.5814 29.3391 48.934 30.3299 49.1917 31.4491C49.4494 32.5682 49.5783 33.8342 49.5783 35.2469Z" fill="#39D353"/>
<path opacity="0.96" d="M219.376 5.68661C219.376 5.85995 219.353 6.04726 219.308 6.24856C219.263 6.44985 219.188 6.63717 219.085 6.81051C218.982 6.98385 218.847 7.12923 218.682 7.24665C218.517 7.36407 218.317 7.42278 218.081 7.42278H215.176C215.044 7.42278 214.904 7.39203 214.755 7.33052C214.606 7.26902 214.468 7.16837 214.34 7.02858C214.212 6.88879 214.105 6.70986 214.018 6.49179C213.935 6.27372 213.894 6.00533 213.894 5.68661C213.894 5.51327 213.917 5.32316 213.962 5.11627C214.007 4.90938 214.08 4.71927 214.179 4.54593C214.282 4.37259 214.414 4.22721 214.575 4.10979C214.741 3.99237 214.941 3.93366 215.176 3.93366H216.471V5.46015H215.176C215.164 5.46015 215.149 5.46295 215.133 5.46854C215.116 5.46854 215.1 5.47692 215.083 5.4937C215.067 5.50488 215.052 5.52725 215.04 5.5608C215.028 5.58876 215.021 5.63069 215.021 5.68661C215.021 5.76489 215.038 5.81801 215.071 5.84597C215.104 5.87392 215.143 5.8879 215.189 5.8879H216.681C216.714 5.8879 216.741 5.87392 216.762 5.84597C216.787 5.81242 216.799 5.75371 216.799 5.66983V3.7072C216.799 3.65687 216.791 3.60935 216.774 3.56461C216.762 3.51429 216.71 3.48913 216.62 3.48913H214.538V1.95425H216.632C216.76 1.95425 216.9 1.985 217.053 2.04651C217.206 2.10801 217.346 2.20866 217.474 2.34845C217.602 2.48824 217.71 2.66997 217.796 2.89363C217.883 3.11729 217.927 3.38848 217.927 3.7072V5.68661C217.927 5.72016 217.924 5.75371 217.92 5.78726C217.916 5.8208 217.914 5.85435 217.914 5.8879H218.081C218.127 5.8879 218.164 5.87952 218.193 5.86274C218.226 5.84597 218.242 5.78166 218.242 5.66983V2.72588C218.242 2.54136 218.22 2.37641 218.174 2.23103C218.129 2.08006 218.067 1.95425 217.989 1.8536C217.91 1.74736 217.817 1.66628 217.71 1.61037C217.602 1.55445 217.485 1.52649 217.357 1.52649H214.451C214.315 1.52649 214.191 1.55725 214.08 1.61875C213.972 1.68026 213.879 1.76693 213.801 1.87876C213.727 1.985 213.669 2.11081 213.628 2.25619C213.586 2.40157 213.566 2.55813 213.566 2.72588V6.65954C213.566 6.83847 213.588 7.00342 213.634 7.15439C213.679 7.29977 213.741 7.42558 213.82 7.53182C213.902 7.63806 213.997 7.72193 214.105 7.78344C214.212 7.83935 214.328 7.86731 214.451 7.86731H215.176V9.39381H214.451C214.249 9.39381 214.03 9.34628 213.795 9.25122C213.559 9.15616 213.341 8.9996 213.138 8.78153C212.936 8.56346 212.767 8.28109 212.63 7.93441C212.498 7.58773 212.432 7.16278 212.432 6.65954V2.72588C212.432 2.4519 212.467 2.15554 212.537 1.83682C212.608 1.51811 212.723 1.22455 212.884 0.956155C213.045 0.682169 213.254 0.455711 213.51 0.276782C213.766 0.0922606 214.08 0 214.451 0H217.357C217.559 0 217.778 0.0475282 218.013 0.142585C218.249 0.237641 218.468 0.394204 218.67 0.612275C218.872 0.824754 219.04 1.10433 219.172 1.45101C219.308 1.79768 219.376 2.22264 219.376 2.72588V5.68661Z" fill="#39D353"/>
<path d="M256.973 21.9516C257.209 22.6375 257.268 23.3327 257.15 24.0372C257.047 24.7417 256.796 25.3534 256.397 25.8725L243.082 42.5572H256.929V49.7872H236.148C235.557 49.7872 235.018 49.5832 234.531 49.1754C234.058 48.749 233.704 48.2114 233.467 47.5625C233.246 46.8766 233.187 46.1814 233.29 45.477C233.408 44.754 233.682 44.1237 234.11 43.586L247.358 26.957H233.512V19.727H254.337C254.913 19.727 255.437 19.9216 255.91 20.311C256.397 20.7003 256.751 21.2471 256.973 21.9516Z" fill="#39D353"/>
</svg>
